HIERARCHY
ROOT Hips
{
  OFFSET -6.76073 104.139 -1.13753
  CHANNELS 6 Xposition Yposition Zposition Zrotation Xrotation Yrotation
  JOINT ToSpine
  {
    OFFSET -0.0105055 1.38907 -7.13956
    CHANNELS 3 Zrotation Xrotation Yrotation
    JOINT Spine
    {
      OFFSET 0.0105055 10 1
      CHANNELS 3 Zrotation Xrotation Yrotation
      JOINT Spine1
      {
        OFFSET 0 12 1.60637
        CHANNELS 3 Zrotation Xrotation Yrotation
        JOINT Neck
        {
          OFFSET 0 27 2.26658
          CHANNELS 3 Zrotation Xrotation Yrotation
          JOINT Head
          {
            OFFSET 0 9 2.12705
            CHANNELS 3 Zrotation Xrotation Yrotation
            End Site
            {
              OFFSET 0 11 2
            }
          }
        }
        JOINT LeftShoulder
        {
          OFFSET 8 19.6109 2.86452
          CHANNELS 3 Zrotation Xrotation Yrotation
          JOINT LeftArm
          {
            OFFSET 12 1 0.681055
            CHANNELS 3 Zrotation Xrotation Yrotation
            JOINT LeftForeArm
            {
              OFFSET 19 0 -1.52608
              CHANNELS 3 Zrotation Xrotation Yrotation
              JOINT LeftHand
              {
                OFFSET 23 0 0
                CHANNELS 3 Zrotation Xrotation Yrotation
                End Site
                {
                  OFFSET 10 0 0
                }
              }
            }
          }
        }
        JOINT RightShoulder
        {
          OFFSET -8 19.6109 2.86452
          CHANNELS 3 Zrotation Xrotation Yrotation
          JOINT RightArm
          {
            OFFSET -12 1 0.681055
            CHANNELS 3 Zrotation Xrotation Yrotation
            JOINT RightForeArm
            {
              OFFSET -19 0 -1.52608
              CHANNELS 3 Zrotation Xrotation Yrotation
              JOINT RightHand
              {
                OFFSET -23 0 0
                CHANNELS 3 Zrotation Xrotation Yrotation
                End Site
                {
                  OFFSET -10 0 0
                }
              }
            }
          }
        }
      }
    }
  }
  JOINT LeftUpLeg
  {
    OFFSET 9 -7.17245 0
    CHANNELS 3 Zrotation Xrotation Yrotation
    JOINT LeftLeg
    {
      OFFSET 0 -44.1113 0
      CHANNELS 3 Zrotation Xrotation Yrotation
      JOINT LeftFoot
      {
        OFFSET 0 -36.1829 0
        CHANNELS 3 Zrotation Xrotation Yrotation
        JOINT LeftToeBase
        {
          OFFSET 0 -4.84184 13
          CHANNELS 3 Zrotation Xrotation Yrotation
          End Site
          {
            OFFSET 0 1 6
          }
        }
      }
    }
  }
  JOINT RightUpLeg
  {
    OFFSET -9 -7.17245 0
    CHANNELS 3 Zrotation Xrotation Yrotation
    JOINT RightLeg
    {
      OFFSET 0 -44.0551 0
      CHANNELS 3 Zrotation Xrotation Yrotation
      JOINT RightFoot
      {
        OFFSET 0 -36.1469 0
        CHANNELS 3 Zrotation Xrotation Yrotation
        JOINT RightToeBase
        {
          OFFSET 0 -4.92256 13
          CHANNELS 3 Zrotation Xrotation Yrotation
          End Site
          {
            OFFSET 0 1 6
          }
        }
      }
    }
  }
}
MOTION
Frames:	10
Frame Time:	0.0333333
-6.76176 104.131 -1.1346 0.909514 -4.05822 1.48267 0 0 0 -3.07059 -2.01814 0.177684 3.08642 11.0058 -0.654639 3.24139 -12.7513 0.109685 -1.15724 9.39907 1.04352 -27.7005 5.27469 -12.0139 -44.7415 15.3634 -6.50117 -12.0734 -13.4824 -11.2207 8.29151 0.161227 2.22899 27.6099 5.95889 14.0457 46.3841 11.6282 2.06896 6.46958 -3.781 13.4123 -0.595355 -0.0328397 6.27754 3.17142 7.10288 8.76413 -1.00999 5.09361 -12.0126 0.307261 -4.22398 0.0119204 -0.501937 -2.33697 0.512057 -3.31044 6.37132 -7.38131 -0.212015 3.49259 12.3119 1.59885 -8.19368 0.114156 -0.0572309 2.29381 0.691038 
-6.75632 104.106 -1.11109 0.913146 -3.84954 1.43233 0 0 0 -3.27703 -2.32009 0.188278 3.46144 11.1172 -0.720077 2.95801 -12.8357 0.131586 -1.05615 9.52621 0.98052 -28.0087 5.32752 -12.0314 -44.5621 15.6596 -6.3587 -12.1261 -13.9423 -11.5877 8.02361 0.146762 2.05617 27.4755 5.94784 14.0803 46.3492 11.8046 2.03972 6.49849 -4.00008 13.5312 -0.41097 -0.0212883 5.97636 3.08605 7.00501 8.68532 -1.00442 4.90106 -11.3512 0.66065 -4.59833 0.0262305 -0.253981 -1.47936 0.165796 -3.29079 6.11315 -7.26074 -0.263567 3.57965 12.6072 1.03713 -7.61014 0.0716214 0.239372 0.605747 -0.507098 
-6.72853 104.097 -1.05287 0.9526 -3.83643 1.49741 0 0 0 -3.36366 -2.38628 0.198644 3.61933 11.1984 -0.750676 2.69167 -12.901 0.247631 -0.871207 9.49242 0.982692 -28.2475 5.35851 -12.0161 -44.4097 15.1064 -6.53692 -12.0518 -13.3756 -11.151 7.10604 0.0392176 0.650737 27.1645 5.85783 13.973 46.6965 11.9008 2.11975 6.6318 -4.6267 13.6274 -0.80817 -0.0402874 5.70895 3.06129 7.01554 8.6775 -0.987529 4.91302 -11.9708 0.831608 -3.86805 0.0283422 -0.861093 -3.24079 1.12986 -3.37683 6.16573 -7.20962 -0.174789 3.51349 13.5401 -0.146109 -6.43049 -0.00953854 0.528174 -1.48958 -1.94055 
-6.72844 104.079 -0.998673 0.819353 -3.91755 1.46023 0 0 0 -3.06296 -2.2967 0.21293 3.34894 11.2408 -0.676342 3.07356 -13.0107 0.192653 -1.1466 9.56926 1.08141 -27.9451 5.29237 -11.9579 -44.4498 15.4675 -6.75592 -12.1624 -13.5956 -11.1454 7.12334 0.0636014 1.02245 27.4236 5.89743 13.9591 46.4594 12.1835 2.24219 6.85958 -5.28269 13.6365 -0.908775 -0.0441946 5.56597 3.19718 7.14026 8.79491 -1.04763 4.90459 -11.1386 1.25892 -4.3032 0.047283 -0.174602 -2.86038 -0.404875 -3.27307 6.26682 -7.21464 -0.125024 3.55023 13.7785 0.0587112 -6.80784 0.00374597 0.615312 -0.439064 -1.87615 
-6.73632 104.094 -0.946475 0.820682 -3.90318 1.46697 0 0 0 -3.17612 -2.28215 0.193084 3.4985 11.1918 -0.723005 2.93627 -12.9708 0.158171 -1.00806 9.56163 0.983502 -27.8542 5.2759 -11.9498 -44.6023 15.4784 -6.72661 -12.15 -13.4193 -11.0976 7.14682 0.0479125 0.763708 27.5775 5.99811 14.1759 46.3345 12.0166 1.94245 6.64154 -4.97649 13.8461 -0.413993 -0.0203569 5.62154 3.2504 7.22213 8.83459 -1.1308 4.82025 -11.4326 1.36588 -4.38263 0.0525975 -0.271193 -2.50174 -0.0723107 -3.23265 6.32479 -7.21317 -0.178956 3.58405 13.7138 0.594289 -7.18026 0.0369437 0.893258 -0.0647194 -2.55238 
-6.69783 104.119 -0.882248 0.787539 -3.894 1.40573 0 0 0 -2.99173 -2.27015 0.215851 3.31578 11.2359 -0.66424 2.95694 -12.9113 0.127489 -1.16276 9.25123 1.00429 -27.8145 5.25152 -11.8961 -44.5912 15.6576 -6.76312 -12.1454 -13.6007 -11.251 7.00753 0.0365365 0.576204 27.6273 6.00421 14.1686 46.1686 12.3853 1.99517 6.83177 -5.58136 13.9159 -0.535516 -0.0263714 5.65026 3.27369 7.2015 8.8752 -1.1329 4.90775 -11.53 1.12549 -3.98443 0.0394645 -0.324356 -3.17145 -0.142099 -3.30978 6.30856 -7.34032 -0.0475602 3.59278 13.682 0.388748 -7.06721 0.0256025 0.563711 -0.0447999 -1.62218 
-6.71264 104.094 -0.842009 0.806361 -3.84456 1.36705 0 0 0 -3.13498 -2.28224 0.25861 3.47239 11.2121 -0.660682 2.68656 -12.9255 0.138917 -0.728961 9.26687 0.835992 -28.0558 5.37455 -12.1465 -44.2775 16.4589 -6.44308 -12.3194 -14.5929 -11.7836 7.78527 0.112195 1.65775 27.5115 5.95453 14.0819 46.2257 12.683 2.16579 7.15027 -6.58478 13.9393 -0.761748 -0.0359687 5.40534 3.25409 7.0799 8.85602 -1.15814 5.12831 -11.208 1.74814 -4.63956 0.0707128 -0.1638 -2.39559 -0.294144 -3.32925 6.26687 -7.34135 0.0338168 3.56576 13.3795 -1.03679 -6.30271 -0.0579821 0.263691 -1.87782 -1.2613 
-6.77499 104.062 -0.84987 0.761069 -3.62372 1.43291 0 0 0 -3.26061 -2.24546 0.242245 3.56332 10.9267 -0.713911 2.62131 -12.8984 0.201786 -0.630943 9.22669 0.854027 -28.1303 5.36876 -12.097 -44.1655 16.7418 -6.41594 -12.3785 -14.7354 -11.898 7.7623 0.125309 1.84847 27.3428 5.86187 13.8957 46.459 12.6402 2.39905 7.28867 -6.81894 13.7664 -0.939799 -0.0439077 5.3356 3.48312 6.56196 9.04116 -1.35241 5.75928 -11.4893 2.03793 -4.76064 0.0847649 -0.284951 -2.60703 -0.0707161 -3.12011 6.0594 -7.01808 -0.111957 3.48483 13.1823 -0.99646 -5.97298 -0.0521485 0.304041 -2.35441 -1.5212 
-6.74154 104.125 -0.797419 0.565907 -3.41214 1.51055 0 0 0 -2.72184 -2.39896 0.117687 3.08722 10.9468 -0.747673 2.91471 -13.2586 0.20309 -0.980553 9.62824 1.00652 -28.1108 5.33268 -12.0015 -44.2987 15.9723 -6.38987 -12.1294 -14.0387 -11.7429 7.42883 0.115017 1.76994 27.4209 5.85529 13.8375 46.4151 12.4837 2.4099 6.89854 -5.71169 13.8653 -0.638454 -0.0302199 5.5253 3.74279 6.18501 9.13972 -1.34433 6.08802 -11.974 1.58758 -4.4739 0.0620103 -0.53092 -3.14146 0.362345 -2.96366 5.84098 -6.9577 -0.158675 3.50647 12.5467 -1.04559 -6.30783 -0.0571938 -0.0246812 -1.42985 -0.301361 
-6.70238 104.117 -0.738423 0.767671 -3.51354 1.34608 0 0 0 -3.00141 -2.14778 0.142127 3.18931 10.7717 -0.710086 3.0006 -13.1596 0.219531 -1.02273 9.70523 1.05301 -27.7377 5.25195 -11.9315 -44.8557 15.5631 -6.30427 -12.0164 -13.8366 -11.728 7.07264 0.0637598 1.02673 27.4676 5.89437 13.9282 46.322 12.2569 2.34678 6.62433 -4.44694 13.661 -0.139917 -0.0076234 6.00112 3.38282 6.60106 8.93417 -1.23589 5.56952 -11.6276 1.59237 -4.34155 0.0606793 -0.605183 -2.99188 0.580735 -3.30529 5.96775 -7.27303 0.0250193 3.60432 13.4316 -0.624296 -6.48909 -0.0347813 0.421262 -1.12003 -1.50752 
